# xmcd
#
# Track frame offsets:
#	150
#	20745
#	40846
#	59056
#	74714
#	92714
#	114037
#	138243
#	157064
#	177297
#	193996
#	208164
#
# Disc length: 3012 seconds
#
# Revision: 1
# Processed by: cddbd v1.4PL0 Copyright (c) Steve Scherf et al.
# Submitted via: audiograbber 1.81.02
#
DISCID=b70bc20c
DTITLE=Sir Mack Rice - This What I Do
DYEAR=2000
DGENRE=R&B
TTITLE0=Money Talks
TTITLE1=I Don't Care If The Sun Don't Shine
TTITLE2=Pussyfootin'
TTITLE3=Standin' By
TTITLE4=Where Was You At?
TTITLE5=Mustang Sally
TTITLE6=Gettin' Too Big For Your Britches
TTITLE7=24 - 7 Man
TTITLE8=Another Lonely Weekend In Memphis, Tennessee
TTITLE9=Other Side Of Town
TTITLE10=Crazy!! Crazy!!!
TTITLE11=Respect Yourself
EXTD=
EXTT0=
EXTT1=
EXTT2=
EXTT3=
EXTT4=
EXTT5=
EXTT6=
EXTT7=
EXTT8=
EXTT9=
EXTT10=
EXTT11=
PLAYORDER=
